Coordinates
version=1
nRows=16
nColumns=36
inDegrees=yes

Units are S.I. units (second, meters, Newtons, ...)
If the header above contains a line with 'inDegrees', this indicates whether rotational values are in degrees (yes) or radians (no).

endheader
time	pelvis_tilt	pelvis_list	pelvis_rotation	pelvis_tx	pelvis_ty	pelvis_tz	hip_flexion_r	hip_adduction_r	hip_rotation_r	knee_angle_r	knee_angle_r_beta	ankle_angle_r	subtalar_angle_r	mtp_angle_r	hip_flexion_l	hip_adduction_l	hip_rotation_l	knee_angle_l	knee_angle_l_beta	ankle_angle_l	subtalar_angle_l	mtp_angle_l	lumbar_extension	lumbar_bending	lumbar_rotation	arm_flex_r	arm_add_r	arm_rot_r	elbow_flex_r	pro_sup_r	arm_flex_l	arm_add_l	arm_rot_l	elbow_flex_l	pro_sup_l
      2.10000000	     -4.90321608	     13.67360156	     13.32715560	      0.81908615	      0.78127225	     -0.01544428	     70.35438219	    -21.26889122	     15.58077068	     36.95862908	      0.64504976	    -12.07108013	      0.49452521	     -7.49999933	     50.99323726	     23.47344798	     -5.17928333	     73.56875547	      1.28401701	     30.12356010	    -16.62688625	     -7.49999933	    -41.92908859	    -14.42460792	    -12.32679996	     56.38526722	     17.05894084	     41.17201674	    122.09432474	    107.32540439	     79.96570985	     10.01079798	     60.98960658	    121.00161786	     93.66517095
      2.11666670	     -4.47594869	     13.46212219	     13.11134890	      0.81840506	      0.78828764	     -0.01516482	     69.09774397	    -21.10116316	     15.28522190	     36.29380815	      0.63344645	    -12.09771529	      0.60330195	     -7.49999935	     49.67647922	     23.46650589	     -4.45674027	     72.47391479	      1.26490843	     30.02012079	    -16.62705887	     -7.49999935	    -41.37560787	    -14.55892807	    -11.78402149	     56.73241208	     17.44241735	     48.94445747	    121.67846166	    107.91078803	     79.92738155	     10.58585851	     61.61949599	    119.93665499	     93.94150610
      2.13333330	     -3.88277454	     13.17928772	     12.80772421	      0.82058519	      0.80402213	     -0.01491724	     67.29547716	    -20.93373158	     14.73393232	     35.09299287	      0.61248827	    -12.28167099	      0.87233187	     -7.49999938	     47.91612270	     23.43234118	     -3.49813628	     71.02440401	      1.23960970	     29.84872905	    -16.54340024	     -7.49999938	    -41.03041253	    -14.50619214	    -11.07184257	     57.38735879	     17.57640994	     52.96577576	    121.09823001	    104.80230196	     79.26945405	     11.20427475	     62.11921751	    120.36349075	     92.56647987
      2.15000000	     -2.97489095	     12.98101338	     12.53864647	      0.81995128	      0.81477437	     -0.01495352	     64.97536664	    -20.99174542	     13.79475953	     33.58449408	      0.58616000	    -12.44472851	      1.89810335	     -7.49999940	     45.64655951	     23.47021423	     -2.48117505	     69.26475487	      1.20889803	     29.33615763	    -16.70911166	     -7.49999940	    -41.17330832	    -14.39567719	    -10.72015903	     57.57152352	     17.11861811	     54.10152442	    120.04180142	    105.64283012	     78.94064094	     11.46691850	     63.24557651	    120.09647308	     93.32171252
      2.16666670	     -2.28242399	     12.58002372	     12.00486726	      0.82753225	      0.81958320	     -0.01279906	     62.83432280	    -20.55185818	     13.22632498	     32.20948344	      0.56216154	    -12.49034521	      2.31068692	     -7.49999952	     43.48974403	     23.17726264	     -1.39705579	     67.49662835	      1.17803840	     29.26533496	    -16.56036015	     -7.49999952	    -40.84921354	    -14.51224070	    -10.85106800	     56.50559571	     15.63917985	     42.33646475	    119.66304809	    108.67907344	     79.00653947	     11.31155063	     63.44314350	    120.63827817	     97.59635216
      2.18333330	     -1.73008361	     12.18329733	     11.50293564	      0.82703828	      0.82698374	     -0.01249413	     61.06859662	    -20.04001443	     12.89138906	     31.27456409	      0.54584412	    -12.34912906	      2.54208153	     -7.49999953	     41.52875552	     22.78389846	     -0.48616645	     65.72868110	      1.14718190	     29.32960861	    -16.19381995	     -7.49999953	    -39.91757737	    -14.82237237	    -10.63876371	     55.63810274	     17.16285628	     48.19828446	    120.94522021	    108.71753933	     79.01227997	     12.02057286	     63.75569760	    120.08971382	     97.54595272
      2.20000000	     -1.35544361	     11.56044067	     10.98648111	      0.82826684	      0.83389484	     -0.01263759	     59.46621126	    -19.27502607	     12.47995780	     30.62286136	      0.53446976	    -12.21205417	      2.50171056	     -7.49999954	     39.81292417	     22.12333812	      0.39432454	     64.09359223	      1.11864421	     29.47349153	    -15.88567931	     -7.49999954	    -38.65242836	    -14.73670704	     -9.74880057	     55.41086155	     17.23970622	     51.69850983	    120.84066082	    108.61017943	     78.01401089	     12.46967120	     64.80619220	    120.19215871	     97.53582555
      2.21666670	     -1.24096865	     11.20739611	     10.68145097	      0.82819332	      0.84045639	     -0.01228747	     58.39517248	    -18.80854156	     12.22546092	     30.13047963	      0.52587607	    -12.27814078	      2.47065091	     -7.49999954	     38.46910334	     21.67473162	      0.89045122	     62.38418596	      1.08880945	     29.43117067	    -15.67517733	     -7.49999954	    -37.70435269	    -14.93267690	     -9.55629946	     54.28961241	     17.51351580	     53.54062240	    120.55209174	    108.65642490	     77.77412029	     12.35979109	     65.26557674	    119.60352803	     97.54565270
      2.23333330	     -1.03530732	     10.59816700	     10.48860272	      0.82995922	      0.84682183	     -0.01217987	     57.07204762	    -18.29217405	     11.52517092	     29.46368377	      0.51423829	    -12.46898865	      2.31288243	     -7.49999959	     37.13977470	     21.00237969	      1.52482455	     60.86720700	      1.06233317	     29.40968783	    -15.52361640	     -7.49999959	    -36.80363251	    -14.65893990	     -9.53050661	     55.00625874	     17.61457303	     57.37865150	    119.91109799	    107.06129330	     78.24493790	     12.49532568	     65.89946607	    118.97209974	     95.13858295
      2.25000000	     -0.51859486	     10.04796376	     10.28410080	      0.83038178	      0.85994259	     -0.01213466	     55.22160274	    -17.88607683	     10.56222244	     28.43413699	      0.49626931	    -12.65585162	      2.56359831	     -7.49999966	     35.30986950	     20.40407743	      2.36428669	     59.01551753	      1.03001509	     28.93334723	    -15.65559059	     -7.49999966	    -36.19886165	    -14.20320823	     -9.17871936	     55.80245899	     17.97610011	     60.07811176	    119.70960703	    108.48384754	     78.31948146	     12.53671910	     65.59797952	    118.53081584	     97.16434028
      2.26666670	     -0.33678811	      9.53859248	     10.01176309	      0.83909968	      0.86994953	     -0.01016978	     53.49799865	    -17.41077440	      9.66519003	     27.10495768	      0.47307076	    -12.53177453	      2.98543709	     -7.49999966	     33.46396447	     19.81465551	      3.23968674	     56.76976079	      0.99081924	     28.48707079	    -15.64305618	     -7.49999966	    -35.35324130	    -13.95439319	     -8.32211719	     55.21972904	     17.16300577	     60.50040540	    119.85876678	    108.42489505	     77.10863969	     12.52567149	     66.41110146	    118.98674779	     97.38172845
      2.28333330	     -0.02361866	      8.97322558	      9.70728665	      0.83881158	      0.87394624	     -0.01042077	     51.84368022	    -16.83739397	      8.97016086	     26.08008719	      0.45518339	    -12.29822198	      3.28588851	     -7.49999967	     31.68532179	     19.14357825	      4.12029665	     54.66914408	      0.95415656	     27.93273715	    -15.66430862	     -7.49999967	    -34.44771668	    -13.64850966	     -8.00370771	     54.79612400	     16.76438436	     60.41122645	    120.28432282	    108.27104302	     77.10701952	     12.79115472	     66.39256639	    118.78505873	     97.71303626
      2.30000000	      0.03192298	      8.70642941	      9.41640991	      0.84111789	      0.88285942	     -0.01078464	     50.58786556	    -16.44120058	      8.49642764	     25.11725649	      0.43837882	    -12.09171094	      3.53742524	     -7.49999967	     30.10199101	     18.74880581	      4.78479943	     52.29871340	      0.91278474	     27.50026761	    -15.33946575	     -7.49999967	    -33.13958513	    -13.64146772	     -7.56127675	     53.84810725	     16.35240217	     61.64160990	    120.92826968	    108.26898986	     76.13641170	     12.69326903	     66.33308085	    118.70572360	     97.78483482
      2.31666670	      0.39678459	      8.05278854	      9.11006716	      0.84119440	      0.88668307	     -0.01057471	     48.86626007	    -15.76818003	      7.47782404	     24.06025831	      0.41993073	    -12.04040015	      3.88786025	     -7.49999968	     28.35400678	     17.97479306	      5.64064540	     50.11549793	      0.87468045	     26.73894704	    -15.62611522	     -7.49999968	    -32.28900065	    -13.03586956	     -6.55907924	     54.30865586	     15.84650097	     62.36428691	    121.44521267	    108.20859240	     75.59534594	     13.13293525	     65.06914053	    118.49114423	     98.04929852
      2.33333330	      0.75200664	      7.68370476	      8.74633042	      0.84937054	      0.89640072	     -0.01387006	     47.13188943	    -15.30286647	      6.66580803	     22.76838474	      0.39738328	    -12.09325539	      4.33925039	     -7.49999968	     26.16391033	     17.45041680	      6.53537064	     47.27522931	      0.82510841	     25.73950079	    -15.79873586	     -7.49999968	    -31.42112558	    -12.66461626	     -6.34838051	     53.52595395	     15.86559114	     63.36605568	    121.19663489	    108.19841808	     74.94727844	     12.85318683	     65.05534893	    118.39926329	     98.40803529
      2.35000000	      1.15150082	      7.29020049	      8.41071616	      0.85013596	      0.90557113	     -0.01312860	     45.29581207	    -14.75106996	      5.99620172	     21.58925619	      0.37680360	    -12.02021141	      4.73519359	     -7.49999969	     23.95761269	     16.84751105	      7.39139333	     44.43644767	      0.77556232	     24.48310788	    -15.99465456	     -7.49999969	    -30.50242673	    -12.21784087	     -6.02470055	     53.17434615	     15.79976893	     63.56244004	    121.05334818	    108.09383601	     74.28330044	     12.56217484	     65.37145501	    118.28195704	     99.09447974
